<?xml version="1.0" encoding="UTF-8" standalone="no"?>
<!DOCTYPE svg PUBLIC "-//W3C//DTD SVG 1.1//EN"
 "http://www.w3.org/Graphics/SVG/1.1/DTD/svg11.dtd">
<!-- Generated by graphviz version 2.47.0 (20210316.0004)
 -->
<!-- Title: dependencies Pages: 1 -->
<svg width="1117pt" height="287pt"
 viewBox="0.00 0.00 1117.00 287.00" xmlns="http://www.w3.org/2000/svg" xmlns:xlink="http://www.w3.org/1999/xlink">
<g id="graph0" class="graph" transform="scale(1 1) rotate(0) translate(4 283)">
<title>dependencies</title>
<polygon fill="white" stroke="transparent" points="-4,4 -4,-283 1113,-283 1113,4 -4,4"/>
<text text-anchor="start" x="533.51" y="-42.4" font-family="Times-12" font-weight="bold" font-size="14.00">Legend</text>
<polygon fill="#ffffb3" stroke="transparent" points="320.5,-10 320.5,-30 340.5,-30 340.5,-10 320.5,-10"/>
<text text-anchor="start" x="344.13" y="-15.4" font-family="Times-12" font-size="14.00"> &#160;Declarations</text>
<polygon fill="#8dd3c7" stroke="transparent" points="433.5,-10 433.5,-30 453.5,-30 453.5,-10 433.5,-10"/>
<text text-anchor="start" x="457.23" y="-15.4" font-family="Times-12" font-size="14.00"> &#160;Module</text>
<polygon fill="#80b1d3" stroke="transparent" points="519.5,-10 519.5,-30 539.5,-30 539.5,-10 519.5,-10"/>
<text text-anchor="start" x="543.28" y="-15.4" font-family="Times-12" font-size="14.00"> &#160;Bootstrap</text>
<polygon fill="#fdb462" stroke="transparent" points="616.5,-10 616.5,-30 636.5,-30 636.5,-10 616.5,-10"/>
<text text-anchor="start" x="640.17" y="-15.4" font-family="Times-12" font-size="14.00"> &#160;Providers</text>
<polygon fill="#fb8072" stroke="transparent" points="712.5,-10 712.5,-30 732.5,-30 732.5,-10 712.5,-10"/>
<text text-anchor="start" x="736.23" y="-15.4" font-family="Times-12" font-size="14.00"> &#160;Exports</text>
<g id="clust1" class="cluster">
<title>cluster_AppModule</title>
<polygon fill="none" stroke="black" stroke-dasharray="1,5" points="168,-70 168,-271 535,-271 535,-70 168,-70"/>
</g>
<g id="clust3" class="cluster">
<title>cluster_AppModule_imports</title>
<polygon fill="none" stroke="black" points="314,-78 314,-206 527,-206 527,-78 314,-78"/>
</g>
<g id="clust6" class="cluster">
<title>cluster_AppModule_providers</title>
<polygon fill="none" stroke="black" points="176,-154 176,-206 306,-206 306,-154 176,-154"/>
</g>
<g id="clust7" class="cluster">
<title>cluster_AuthModule</title>
<polygon fill="none" stroke="black" stroke-dasharray="1,5" points="543,-146 543,-214 819,-214 819,-146 543,-146"/>
</g>
<g id="clust10" class="cluster">
<title>cluster_AuthModule_exports</title>
<polygon fill="none" stroke="black" points="701,-154 701,-206 811,-206 811,-154 701,-154"/>
</g>
<g id="clust12" class="cluster">
<title>cluster_AuthModule_providers</title>
<polygon fill="none" stroke="black" points="551,-154 551,-206 693,-206 693,-154 551,-154"/>
</g>
<g id="clust13" class="cluster">
<title>cluster_PostsModule</title>
<polygon fill="none" stroke="black" stroke-dasharray="1,5" points="8,-70 8,-138 160,-138 160,-70 8,-70"/>
</g>
<g id="clust18" class="cluster">
<title>cluster_PostsModule_providers</title>
<polygon fill="none" stroke="black" points="16,-78 16,-130 152,-130 152,-78 16,-78"/>
</g>
<g id="clust19" class="cluster">
<title>cluster_UsersModule</title>
<polygon fill="none" stroke="black" stroke-dasharray="1,5" points="827,-146 827,-214 1101,-214 1101,-146 827,-146"/>
</g>
<g id="clust22" class="cluster">
<title>cluster_UsersModule_exports</title>
<polygon fill="none" stroke="black" points="983,-154 983,-206 1093,-206 1093,-154 983,-154"/>
</g>
<g id="clust24" class="cluster">
<title>cluster_UsersModule_providers</title>
<polygon fill="none" stroke="black" points="835,-154 835,-206 975,-206 975,-154 835,-154"/>
</g>
<!-- AuthModule -->
<g id="node1" class="node">
<title>AuthModule</title>
<polygon fill="#8dd3c7" stroke="black" points="409.55,-122 406.55,-126 385.55,-126 382.55,-122 322.45,-122 322.45,-86 409.55,-86 409.55,-122"/>
<text text-anchor="middle" x="366" y="-99.8" font-family="Times,serif" font-size="14.00">AuthModule</text>
</g>
<!-- AppModule -->
<g id="node4" class="node">
<title>AppModule</title>
<polygon fill="#8dd3c7" stroke="black" points="440.66,-263 437.66,-267 416.66,-267 413.66,-263 357.34,-263 357.34,-227 440.66,-227 440.66,-263"/>
<text text-anchor="middle" x="399" y="-240.8" font-family="Times,serif" font-size="14.00">AppModule</text>
</g>
<!-- AuthModule&#45;&gt;AppModule -->
<g id="edge1" class="edge">
<title>AuthModule&#45;&gt;AppModule</title>
<path fill="none" stroke="black" d="M409.74,-110C414.01,-110 416.8,-110 416.8,-110 416.8,-110 416.8,-216.79 416.8,-216.79"/>
<polygon fill="black" stroke="black" points="413.3,-216.79 416.8,-226.79 420.3,-216.79 413.3,-216.79"/>
</g>
<!-- AuthServices  -->
<g id="node6" class="node">
<title>AuthServices </title>
<polygon fill="#fb8072" stroke="black" points="803.42,-198 708.58,-198 708.58,-162 803.42,-162 803.42,-198"/>
<text text-anchor="middle" x="756" y="-175.8" font-family="Times,serif" font-size="14.00">AuthServices </text>
</g>
<!-- AuthModule&#45;&gt;AuthServices  -->
<g id="edge5" class="edge">
<title>AuthModule&#45;&gt;AuthServices </title>
<path fill="none" stroke="black" stroke-dasharray="5,2" d="M366.11,-122.11C366.11,-131.9 366.11,-142 366.11,-142 366.11,-142 756,-142 756,-142 756,-142 756,-151.89 756,-151.89"/>
<polygon fill="black" stroke="black" points="752.5,-151.89 756,-161.89 759.5,-151.89 752.5,-151.89"/>
</g>
<!-- PostsModule -->
<g id="node2" class="node">
<title>PostsModule</title>
<polygon fill="#8dd3c7" stroke="black" points="411.61,-198 408.61,-202 387.61,-202 384.61,-198 322.39,-198 322.39,-162 411.61,-162 411.61,-198"/>
<text text-anchor="middle" x="367" y="-175.8" font-family="Times,serif" font-size="14.00">PostsModule</text>
</g>
<!-- PostsModule&#45;&gt;AppModule -->
<g id="edge2" class="edge">
<title>PostsModule&#45;&gt;AppModule</title>
<path fill="none" stroke="black" d="M384.36,-198.11C384.36,-198.11 384.36,-216.99 384.36,-216.99"/>
<polygon fill="black" stroke="black" points="380.86,-216.99 384.36,-226.99 387.86,-216.99 380.86,-216.99"/>
</g>
<!-- UsersModule -->
<g id="node3" class="node">
<title>UsersModule</title>
<polygon fill="#8dd3c7" stroke="black" points="518.92,-122 515.92,-126 494.92,-126 491.92,-122 427.08,-122 427.08,-86 518.92,-86 518.92,-122"/>
<text text-anchor="middle" x="473" y="-99.8" font-family="Times,serif" font-size="14.00">UsersModule</text>
</g>
<!-- UsersModule&#45;&gt;PostsModule -->
<g id="edge7" class="edge">
<title>UsersModule&#45;&gt;PostsModule</title>
<path fill="none" stroke="black" d="M431.8,-122.03C431.8,-142.77 431.8,-174 431.8,-174 431.8,-174 421.65,-174 421.65,-174"/>
<polygon fill="black" stroke="black" points="421.65,-170.5 411.65,-174 421.65,-177.5 421.65,-170.5"/>
</g>
<!-- UsersModule&#45;&gt;AppModule -->
<g id="edge3" class="edge">
<title>UsersModule&#45;&gt;AppModule</title>
<path fill="none" stroke="black" d="M436.32,-122.14C436.32,-122.14 436.32,-216.93 436.32,-216.93"/>
<polygon fill="black" stroke="black" points="432.82,-216.92 436.32,-226.93 439.82,-216.93 432.82,-216.92"/>
</g>
<!-- UsersService  -->
<g id="node9" class="node">
<title>UsersService </title>
<polygon fill="#fb8072" stroke="black" points="1084.85,-198 991.15,-198 991.15,-162 1084.85,-162 1084.85,-198"/>
<text text-anchor="middle" x="1038" y="-175.8" font-family="Times,serif" font-size="14.00">UsersService </text>
</g>
<!-- UsersModule&#45;&gt;UsersService  -->
<g id="edge9" class="edge">
<title>UsersModule&#45;&gt;UsersService </title>
<path fill="none" stroke="black" stroke-dasharray="5,2" d="M518.76,-98C653.26,-98 1038,-98 1038,-98 1038,-98 1038,-151.8 1038,-151.8"/>
<polygon fill="black" stroke="black" points="1034.5,-151.8 1038,-161.8 1041.5,-151.8 1034.5,-151.8"/>
</g>
<!-- AppService -->
<g id="node5" class="node">
<title>AppService</title>
<ellipse fill="#fdb462" stroke="black" cx="241" cy="-180" rx="56.74" ry="18"/>
<text text-anchor="middle" x="241" y="-175.8" font-family="Times,serif" font-size="14.00">AppService</text>
</g>
<!-- AppService&#45;&gt;AppModule -->
<g id="edge4" class="edge">
<title>AppService&#45;&gt;AppModule</title>
<path fill="none" stroke="black" d="M241,-198.11C241,-217.34 241,-245 241,-245 241,-245 347.07,-245 347.07,-245"/>
<polygon fill="black" stroke="black" points="347.07,-248.5 357.07,-245 347.07,-241.5 347.07,-248.5"/>
</g>
<!-- AuthServices -->
<g id="node7" class="node">
<title>AuthServices</title>
<ellipse fill="#fdb462" stroke="black" cx="622" cy="-180" rx="63.12" ry="18"/>
<text text-anchor="middle" x="622" y="-175.8" font-family="Times,serif" font-size="14.00">AuthServices</text>
</g>
<!-- AuthServices&#45;&gt;AuthModule -->
<g id="edge6" class="edge">
<title>AuthServices&#45;&gt;AuthModule</title>
<path fill="none" stroke="black" d="M562.28,-186C503.36,-186 422.05,-186 422.05,-186 422.05,-186 422.05,-98 422.05,-98 422.05,-98 419.61,-98 419.61,-98"/>
<polygon fill="black" stroke="black" points="419.61,-94.5 409.61,-98 419.61,-101.5 419.61,-94.5"/>
</g>
<!-- PostsService -->
<g id="node8" class="node">
<title>PostsService</title>
<ellipse fill="#fdb462" stroke="black" cx="84" cy="-104" rx="60.27" ry="18"/>
<text text-anchor="middle" x="84" y="-99.8" font-family="Times,serif" font-size="14.00">PostsService</text>
</g>
<!-- PostsService&#45;&gt;PostsModule -->
<g id="edge8" class="edge">
<title>PostsService&#45;&gt;PostsModule</title>
<path fill="none" stroke="black" d="M144.54,-104C211.46,-104 309.92,-104 309.92,-104 309.92,-104 309.92,-180 309.92,-180 309.92,-180 312.31,-180 312.31,-180"/>
<polygon fill="black" stroke="black" points="312.31,-183.5 322.31,-180 312.31,-176.5 312.31,-183.5"/>
</g>
<!-- UsersService -->
<g id="node10" class="node">
<title>UsersService</title>
<ellipse fill="#fdb462" stroke="black" cx="905" cy="-180" rx="61.95" ry="18"/>
<text text-anchor="middle" x="905" y="-175.8" font-family="Times,serif" font-size="14.00">UsersService</text>
</g>
<!-- UsersService&#45;&gt;UsersModule -->
<g id="edge10" class="edge">
<title>UsersService&#45;&gt;UsersModule</title>
<path fill="none" stroke="black" d="M905,-161.97C905,-141.23 905,-110 905,-110 905,-110 528.82,-110 528.82,-110"/>
<polygon fill="black" stroke="black" points="528.82,-106.5 518.82,-110 528.82,-113.5 528.82,-106.5"/>
</g>
</g>
</svg>
